<svg xmlns="http://www.w3.org/2000/svg" viewBox="0 0 36 28">
  <defs>
    <radialGradient id="meatGrad" cx="45%" cy="40%" r="60%">
      <stop offset="0%" stop-color="#C86850"/>
      <stop offset="50%" stop-color="#A84838"/>
      <stop offset="100%" stop-color="#782820"/>
    </radialGradient>
    <radialGradient id="boneGrad" cx="50%" cy="45%" r="50%">
      <stop offset="0%" stop-color="#D8C8A8"/>
      <stop offset="100%" stop-color="#A89070"/>
    </radialGradient>
  </defs>
  <g transform="translate(18,14)">
    <path d="M-10,2 Q-12,-4 -6,-8 Q0,-10 4,-6 Q10,-8 12,-2 Q14,4 8,6 Q6,10 0,8 Q-6,10 -10,2Z" fill="url(#meatGrad)"/>
    <path d="M-8,0 Q-6,-6 0,-4 Q4,-2 2,4 Q0,6 -4,4 Q-8,6 -8,0Z" fill="#883830" opacity="0.4"/>
    <ellipse cx="-6" cy="4" rx="1.5" ry="0.8" fill="#601810" opacity="0.4"/>
    <ellipse cx="3" cy="5" rx="1" ry="0.6" fill="#601810" opacity="0.4"/>
    <path d="M6,-10 Q10,-14 14,-12 Q12,-8 6,-6Z" fill="url(#boneGrad)"/>
    <path d="M4,-6 Q8,-10 12,-8" fill="none" stroke="#A89070" stroke-width="0.8" opacity="0.5"/>
    <circle cx="10" cy="-11" r="2" fill="none" stroke="#A89070" stroke-width="1"/>
    <path d="M10,-11 L10,-8" stroke="#A89070" stroke-width="0.8"/>
  </g>
</svg>
